<?xml version="1.0" encoding="UTF-8"?>
<svg id="Camada_1" data-name="Camada 1" xmlns="http://www.w3.org/2000/svg" viewBox="0 0 405.25 454.75">
  <defs>
    <style>
      .cls-1 {
        fill: #ab5e2f;
      }
    </style>
  </defs>
  <path class="cls-1" d="M369.91,432.73c-18,6.92-36.86,10.33-56.38,10.33-24.26,0-45.39-4.74-63.29-14.31-18-9.48-32.88-22.46-44.72-38.94-11.94-16.39-20.85-35.25-26.72-56.47-5.87-21.22-8.81-43.49-8.81-66.7v-1.04c0-15.82,1.33-31.17,4.07-46.05,3.41-1.23,6.92-2.46,10.42-3.69,3.41-1.23,6.92-2.56,10.52-3.79,6.54-2.37,13.27-4.83,20.18-7.3,27.95-10.42,49.74-25.87,65.47-46.52,11.94-16.3,18.38-32.78,19.42-49.46-15.44,1.33-29.18,5.12-41.03,11.37-1.33.66-2.56,1.42-3.79,2.18-1.52,13.08-5.12,25.68-10.8,37.71-9.76,20.37-23.88,34.39-42.45,41.97-1.71.57-3.32,1.23-4.93,1.8-3.7,1.33-7.2,2.56-10.71,3.79-3.7,1.33-7.2,2.65-10.71,3.89.95-4.26,1.99-8.43,3.13-12.6,5.87-21.22,14.78-40.08,26.72-56.47,11.84-16.49,26.72-29.47,44.72-38.94,1.8-.95,3.7-1.9,5.59-2.75,12.89-5.97,27.38-9.66,43.4-10.99,4.64-.38,9.38-.57,14.31-.57,19.9,0,38.94,3.51,57.13,10.61h.28c5.68,2.84,9.57,7.67,11.56,14.4,2.08,6.73,3.03,13.93,3.03,21.51s-.28,14.12-.95,19.71l-1.33,8.34h2.84l16.68-46.52,2.46-7.3-.47-.28c-27.67-18.67-58.08-28.05-91.25-28.05-5.21,0-10.33.19-15.44.66-.66-3.22-1.42-6.25-2.27-9.29-.95-3.13-1.99-6.25-3.32-9.19-5.68-14.21-14.69-26.53-27-36.95C242.75,9,214.99,0,182.3,0H0v6.06c7.96,0,13.74,1.61,17.53,4.74,3.69,3.13,5.5,7.49,5.5,12.98v320.83c0,5.4-1.8,9.66-5.5,12.89-3.79,3.22-9.57,4.74-17.53,4.74v6.06h89.82v-6.06c-7.77,0-13.55-1.52-17.24-4.74-3.7-3.22-5.5-7.49-5.5-12.89v-88.02c11.56-3.79,24.64-8.15,39.13-13.17.28-2.65.66-5.31,1.14-7.96-15.25,5.31-28.71,9.76-40.27,13.55V7.11l78.55.47c33.73,0,60.64,9,80.92,26.81,13.83,13.45,22.46,25.87,25.87,37.62.95,2.75,1.42,5.5,1.71,8.15,0,.47.09.85.09,1.23.38,3.6.66,6.82.85,9.66-4.55,1.52-9,3.13-13.46,5.02-23.02,9.76-43.77,23.78-62.35,42.16-17.62,17.62-31.36,37.71-41.03,60.07-4.26,9.95-7.67,19.99-10.04,29.94-.66,2.75-1.23,5.5-1.71,8.15-1.9,9.76-2.84,19.52-2.84,29.18v1.04c0,22.36,4.93,44.82,14.59,67.18,9.66,22.46,23.4,42.54,41.03,60.17,18.57,18.38,39.32,32.4,62.35,42.16,23.02,9.66,47,14.5,71.92,14.5,16.68,0,32.69-3.13,47.94-9.48,15.16-6.35,29.37-14.21,42.26-23.69l-.95-2.46c-10.14,7.2-21.03,13.17-32.88,17.72Z"/>
  <path class="cls-1" d="M45.11,454.75c0-10.07,3.58-18.68,10.72-25.82,7.14-7.15,15.75-10.72,25.83-10.72-10.07,0-18.69-3.57-25.83-10.72-7.15-7.15-10.72-15.75-10.72-25.83,0,10.08-3.57,18.69-10.72,25.83-7.15,7.15-15.75,10.72-25.83,10.72,10.08,0,18.69,3.58,25.83,10.72,7.15,7.15,10.72,15.75,10.72,25.82Z"/>
</svg>