<?xml version="1.0" encoding="UTF-8"?>
<svg id="svg5027" xmlns="http://www.w3.org/2000/svg" xmlns:svg="http://www.w3.org/2000/svg" xmlns:sodipodi="http://sodipodi.sourceforge.net/DTD/sodipodi-0.dtd" xmlns:rdf="http://www.w3.org/1999/02/22-rdf-syntax-ns#" xmlns:inkscape="http://www.inkscape.org/namespaces/inkscape" xmlns:dc="http://purl.org/dc/elements/1.1/" xmlns:cc="http://creativecommons.org/ns#" version="1.1" viewBox="0 0 288 287.98">
  <!-- Generator: Adobe Illustrator 29.5.1, SVG Export Plug-In . SVG Version: 2.1.0 Build 141)  -->
  <defs>
    <style>
      .st0 {
        fill: #eadfd5;
      }
    </style>
  </defs>
  <sodipodi:namedview id="base" bordercolor="#666666" borderopacity="1.0" fit-margin-bottom="2" fit-margin-left="2" fit-margin-right="2" fit-margin-top="2" inkscape:current-layer="layer1" inkscape:cx="194.97938" inkscape:cy="26.738051" inkscape:document-units="px" inkscape:pageopacity="0.0" inkscape:pageshadow="2" inkscape:window-height="1057" inkscape:window-maximized="1" inkscape:window-width="1920" inkscape:window-x="-8" inkscape:window-y="-8" inkscape:zoom="1" pagecolor="#ffffff" showgrid="false" units="pc"/>
  <g id="layer1" inkscape:groupmode="layer" inkscape:label="Camada 1">
    <path id="path4642" class="st0" d="M144,24.01c-32.59,0-36.67.21-49.47.73-12.77.58-21.48,2.58-29.11,5.55-7.89,3.07-14.61,7.19-21.28,13.86-6.67,6.67-10.75,13.35-13.82,21.24-2.97,7.63-5,16.37-5.59,29.14-.59,12.8-.74,16.88-.74,49.47s.15,36.67.74,49.47c.58,12.77,2.62,21.48,5.59,29.11,3.07,7.89,7.15,14.57,13.82,21.24,6.67,6.67,13.39,10.79,21.28,13.86,7.63,2.97,16.34,5,29.11,5.59,12.8.58,16.88.7,49.47.7s36.67-.19,49.47-.7c12.77-.58,21.51-2.62,29.15-5.59,7.89-3.07,14.57-7.18,21.24-13.86,6.67-6.67,10.75-13.35,13.82-21.24,2.97-7.63,5-16.34,5.59-29.11.59-12.8.74-16.88.74-49.47s-.15-36.67-.74-49.47c-.58-12.77-2.62-21.51-5.59-29.14-3.07-7.89-7.15-14.57-13.82-21.24-6.67-6.67-13.35-10.79-21.24-13.86-7.63-2.97-16.37-4.97-29.15-5.55-12.8-.58-16.88-.73-49.47-.73h0ZM144,45.62c32.04,0,35.82.19,48.48.7,11.7.53,18.08,2.51,22.31,4.15,5.6,2.18,9.58,4.77,13.78,8.97,4.2,4.2,6.79,8.18,8.97,13.78,1.64,4.23,3.62,10.61,4.15,22.31.58,12.65.7,16.44.7,48.48s-.13,35.83-.7,48.48c-.53,11.7-2.51,18.04-4.15,22.27-2.18,5.6-4.77,9.62-8.97,13.82-4.2,4.2-8.18,6.79-13.78,8.97-4.23,1.64-10.61,3.58-22.31,4.12-12.65.58-16.44.7-48.48.7s-35.83-.19-48.48-.7c-11.7-.53-18.04-2.47-22.27-4.12-5.6-2.18-9.62-4.77-13.82-8.97-4.2-4.2-6.79-8.22-8.97-13.82-1.64-4.23-3.58-10.57-4.12-22.27-.58-12.65-.7-16.44-.7-48.48s.13-35.83.7-48.48c.53-11.7,2.47-18.08,4.12-22.31,2.18-5.6,4.77-9.58,8.97-13.78,4.2-4.2,8.22-6.79,13.82-8.97,4.23-1.64,10.57-3.62,22.27-4.15,12.65-.58,16.44-.7,48.48-.7ZM208.06,65.54c-7.95,0-14.41,6.45-14.41,14.41s6.46,14.41,14.41,14.41,14.41-6.45,14.41-14.41-6.45-14.41-14.41-14.41ZM144,82.37c-34.03,0-61.6,27.61-61.6,61.64s27.57,61.6,61.6,61.6,61.64-27.57,61.64-61.6-27.61-61.64-61.64-61.64h0ZM144,104.02c22.09,0,39.99,17.9,39.99,39.99s-17.9,39.99-39.99,39.99-39.99-17.9-39.99-39.99,17.9-39.99,39.99-39.99Z" inkscape:connector-curvature="0"/>
  </g>
</svg>