<?xml version="1.0" encoding="UTF-8"?>
<svg id="Camada_1" data-name="Camada 1" xmlns="http://www.w3.org/2000/svg" viewBox="0 0 365.84 365.94">
  <defs>
    <style>
      .cls-1 {
        fill: #ab5e2f;
      }
    </style>
  </defs>
  <g>
    <path class="cls-1" d="M21.52,178.15c.21.01.32-.09.33-.29l.06-1.03c.01-.21-.08-.32-.29-.33l-9.68-.56c-.08,0-.12-.05-.12-.13l.2-3.45c.08-1.43-.38-2.62-1.39-3.56s-2.39-1.47-4.16-1.57c-1.76-.1-3.22.26-4.36,1.09-1.14.83-1.75,1.97-1.84,3.42L0,176.59c-.01.21.09.32.29.33l21.23,1.23ZM1.77,172c.06-1.02.51-1.81,1.36-2.39s1.94-.82,3.29-.74c1.33.08,2.38.45,3.15,1.12.77.67,1.13,1.51,1.07,2.53l-.19,3.2c0,.09-.05.12-.13.12l-8.62-.5c-.08,0-.12-.05-.12-.13l.19-3.21Z"/>
    <path class="cls-1" d="M23.27,158.94c.21.04.33-.05.36-.25l.18-1.01c.04-.2-.05-.33-.25-.36l-9.64-1.73c-.08-.02-.12-.07-.1-.15l.55-3.04c.01-.06.05-.1.11-.11l10.33-1.63c.18-.03.28-.14.31-.32l.18-1.01c.03-.19-.02-.29-.17-.32h-.13s-10.38,1.72-10.38,1.72c-.09,0-.13-.03-.14-.12-.16-1.08-.67-2.01-1.53-2.78-.85-.77-1.97-1.27-3.34-1.52-1.72-.31-3.19-.12-4.41.57-1.22.69-1.96,1.75-2.22,3.18l-.85,4.76c-.04.2.05.33.25.36l20.87,3.75ZM4.42,150.52c.18-1,.72-1.74,1.62-2.21.9-.47,2-.59,3.31-.36,1.29.23,2.27.73,2.95,1.48.68.76.93,1.63.75,2.64l-.56,3.13c-.02.08-.06.11-.15.1l-8.38-1.5c-.08-.01-.12-.06-.1-.15l.56-3.13Z"/>
    <path class="cls-1" d="M27.36,140.11c.2.06.33-.01.39-.21l.28-.99c.06-.2-.02-.33-.21-.39l-20.4-5.76c-.2-.06-.33.01-.39.21l-.28.99c-.06.2.01.33.21.39l20.4,5.76Z"/>
    <path class="cls-1" d="M31.16,115.56c1.42.68,2.76.82,4.02.39,1.25-.42,2.21-1.32,2.87-2.69.67-1.39.77-2.7.32-3.95-.45-1.24-1.39-2.21-2.81-2.89l-.48-.23c-.19-.09-.33-.04-.42.14l-.5.9c-.09.19-.04.33.15.42l.65.31c.97.47,1.62,1.13,1.95,1.99.33.86.27,1.75-.17,2.66-.44.92-1.1,1.52-1.96,1.79-.87.27-1.79.18-2.77-.29l-10.99-5.28c-.97-.47-1.62-1.13-1.94-1.97-.32-.84-.26-1.72.18-2.64.45-.94,1.11-1.55,1.97-1.82.86-.28,1.78-.18,2.75.28l.7.34c.19.09.33.04.42-.15l.39-.96c.04-.07.04-.15,0-.24-.03-.08-.09-.15-.18-.19l-.54-.26c-1.41-.68-2.73-.8-3.97-.37-1.24.43-2.2,1.34-2.86,2.72-.66,1.37-.77,2.67-.32,3.91s1.37,2.2,2.77,2.87l10.79,5.18Z"/>
    <path class="cls-1" d="M43.63,101.8c.08-.01.15-.06.2-.15l.55-.87c.11-.17.09-.32-.05-.44l-3.01-2.89s-.05-.05-.05-.09c0-.04,0-.08.03-.11l3.26-5.17s.05-.06.09-.08c.03-.02.07-.01.1,0l3.9,1.46c.18.07.32.02.42-.14l.57-.9c.1-.16.07-.29-.09-.39l-.05-.03-20.48-7.27c-.17-.08-.31-.03-.42.14l-.66,1.06c-.1.16-.08.31.05.44l15.41,15.31c.08.07.16.1.24.09ZM40.13,96.29l-9.66-9.41c-.04-.05-.06-.08-.05-.11.01-.02.05-.02.11,0l12.64,4.69c.07.04.09.09.06.15l-2.94,4.67c-.03.05-.09.06-.16.01Z"/>
    <path class="cls-1" d="M54.43,85.23c.16.13.3.12.44-.04l.65-.8c.13-.16.12-.31-.04-.44l-13.65-11.14s-.06-.07-.04-.1c.02-.02.06-.04.11-.04l8.06,2.11c.15.04.28,0,.39-.13.09-.11.09-.25,0-.4l-3.72-7.47s-.02-.08.01-.11c.03-.03.06-.03.11.01l13.69,11.18c.16.13.31.12.44-.04l.65-.8c.13-.16.12-.31-.04-.44l-16.42-13.4c-.16-.13-.31-.12-.44.04l-.67.82c-.11.13-.12.26-.05.4l3.96,8.06s.02.08-.01.11c-.03.03-.06.04-.11.03l-8.73-2.22c-.15-.04-.28,0-.38.13l-.67.82c-.13.16-.12.31.04.44l16.43,13.4Z"/>
    <path class="cls-1" d="M69.14,68.93l.75-.71c.15-.14.16-.29.01-.44l-6.67-7.03c-.06-.06-.05-.12,0-.18l2.51-2.38c1.04-.98,1.51-2.17,1.43-3.54-.09-1.38-.74-2.71-1.95-3.99-1.22-1.28-2.53-2.01-3.92-2.19-1.4-.18-2.63.24-3.68,1.23l-3.53,3.35c-.15.15-.15.29-.01.44l14.63,15.43c.15.15.29.15.44.01ZM62.12,59.57l-5.94-6.27c-.06-.06-.06-.12,0-.17l2.33-2.21c.74-.7,1.61-.97,2.62-.81,1.01.16,1.98.73,2.91,1.71.91.97,1.42,1.96,1.53,2.97.1,1.02-.21,1.88-.95,2.58l-2.33,2.21c-.06.06-.12.06-.17,0Z"/>
    <path class="cls-1" d="M79.86,52.71c.93,1.25,2.06,1.98,3.39,2.2,1.33.22,2.61-.13,3.83-1.03,1.24-.91,1.95-2.04,2.15-3.39.19-1.35-.17-2.65-1.1-3.9l-7.03-9.5c-.94-1.27-2.08-2.01-3.43-2.22-1.35-.21-2.63.15-3.87,1.06-1.23.92-1.94,2.04-2.12,3.37-.18,1.33.2,2.64,1.14,3.9l7.03,9.5ZM73.29,39.44c.1-.94.56-1.72,1.38-2.32.83-.62,1.72-.84,2.66-.68.94.17,1.74.7,2.39,1.59l7.11,9.59c.66.89.92,1.8.81,2.74-.12.94-.6,1.72-1.43,2.34-.82.61-1.69.83-2.62.66-.93-.17-1.72-.69-2.37-1.58l-7.11-9.6c-.66-.88-.93-1.8-.83-2.74Z"/>
    <path class="cls-1" d="M94.06,34.05c.76.17,1.81.35,3.15.51,1.32.18,2.29.33,2.89.45s1.18.35,1.72.69c.54.34,1,.84,1.38,1.51.58,1.01.77,1.99.57,2.94-.2.95-.72,1.67-1.57,2.15s-1.72.55-2.63.21c-.9-.35-1.66-1.05-2.27-2.12l-.29-.52c-.11-.18-.25-.22-.42-.11l-.87.5c-.18.1-.22.24-.11.42l.32.57c.81,1.41,1.86,2.32,3.15,2.74,1.29.42,2.58.27,3.86-.47,1.28-.73,2.07-1.76,2.38-3.1.3-1.33.03-2.74-.81-4.22-.46-.81-1-1.43-1.61-1.84-.61-.42-1.32-.72-2.12-.91-.8-.19-1.96-.38-3.48-.56-1.24-.16-2.18-.31-2.83-.46s-1.22-.4-1.7-.71c-.48-.32-.9-.79-1.25-1.41-.59-1.03-.78-1.98-.58-2.84.2-.87.69-1.53,1.49-1.98.88-.5,1.78-.58,2.69-.23.91.35,1.67,1.07,2.27,2.13l.39.68c.1.18.25.22.43.12l.89-.51c.18-.1.22-.25.11-.42l-.39-.68c-.83-1.45-1.89-2.38-3.19-2.81-1.3-.43-2.61-.27-3.93.48-1.23.7-2,1.67-2.32,2.91-.32,1.24-.08,2.55.71,3.94.51.88,1.1,1.55,1.8,2.01.69.46,1.42.77,2.18.95Z"/>
    <path class="cls-1" d="M131.12,30.82c1.46-.5,2.47-1.35,3.04-2.54s.6-2.54.09-4.03l-.17-.5c-.07-.2-.2-.26-.4-.19l-.99.27c-.2.07-.26.2-.19.4l.23.68c.35,1.02.33,1.95-.05,2.79-.38.83-1.06,1.41-2.02,1.74-.97.33-1.85.28-2.65-.15-.81-.43-1.38-1.15-1.73-2.18l-3.94-11.53c-.35-1.02-.34-1.94.04-2.77.38-.82,1.05-1.39,2.01-1.73.98-.33,1.87-.29,2.68.13.8.42,1.38,1.14,1.73,2.16l.25.74c.07.2.2.26.4.19l.95-.39c.08-.03.14-.08.18-.16.04-.08.04-.17,0-.26l-.19-.56c-.5-1.48-1.35-2.51-2.52-3.09-1.18-.58-2.49-.63-3.95-.13-1.43.49-2.44,1.33-3.01,2.51-.57,1.19-.61,2.51-.1,3.99l3.87,11.33c.51,1.5,1.36,2.54,2.54,3.14s2.49.65,3.93.16Z"/>
    <path class="cls-1" d="M146.65,26.09c.2-.04.28-.16.24-.37l-2.04-9.57c-.02-.08.01-.13.1-.15l3.02-.64c.06-.01.11.01.14.07l5.41,8.95c.1.15.24.2.42.17l1.01-.21c.18-.04.26-.13.23-.27l-.06-.12-5.51-8.97c-.04-.08-.02-.13.06-.17.94-.56,1.61-1.38,1.99-2.46.39-1.08.44-2.3.15-3.66-.36-1.71-1.09-3-2.19-3.87-1.1-.87-2.36-1.15-3.78-.85l-4.73,1c-.2.04-.29.17-.24.37l4.41,20.74c.04.2.17.29.37.24l1.01-.22ZM142.75,6.24c-.02-.08.01-.13.1-.15l3.11-.66c1-.21,1.88.01,2.66.66s1.3,1.63,1.58,2.93c.27,1.28.18,2.38-.26,3.29-.44.91-1.17,1.47-2.16,1.69l-3.11.66c-.08.02-.13-.01-.15-.1l-1.77-8.33Z"/>
    <path class="cls-1" d="M168.69,22.85c1.53-.13,2.73-.73,3.6-1.78.87-1.05,1.23-2.34,1.09-3.9l-1.05-11.77c-.14-1.57-.73-2.8-1.77-3.68-1.04-.88-2.32-1.25-3.85-1.11-1.53.14-2.72.73-3.57,1.77-.85,1.05-1.2,2.36-1.06,3.93l1.05,11.77c.14,1.55.72,2.77,1.75,3.65,1.03.88,2.3,1.25,3.81,1.12ZM164.78,18l-1.06-11.89c-.1-1.1.15-2.02.72-2.77.58-.75,1.38-1.17,2.39-1.26,1.03-.09,1.91.18,2.62.81s1.12,1.5,1.22,2.6l1.06,11.9c.1,1.1-.15,2.02-.74,2.76-.59.74-1.4,1.16-2.44,1.25-1.01.09-1.87-.18-2.57-.81s-1.1-1.49-1.2-2.59Z"/>
    <path class="cls-1" d="M188.29,22.31c1.53.05,2.78-.38,3.74-1.29s1.46-2.16,1.52-3.74l.02-.53c0-.21-.09-.31-.3-.32l-1.03-.1c-.21,0-.31.09-.32.3l-.02.72c-.04,1.08-.38,1.94-1.04,2.59-.65.65-1.49.95-2.51.91-1.02-.03-1.83-.39-2.43-1.08-.6-.69-.88-1.57-.85-2.65l.41-12.18c.04-1.08.38-1.94,1.02-2.57.64-.63,1.47-.93,2.49-.9,1.04.04,1.86.39,2.46,1.07.6.68.88,1.55.85,2.63l-.03.78c0,.21.09.31.3.32l1.03-.03c.09,0,.16-.02.22-.08.07-.06.1-.14.1-.25l.02-.59c.05-1.56-.37-2.82-1.26-3.79-.89-.97-2.11-1.48-3.64-1.53-1.51-.05-2.75.37-3.71,1.28-.95.9-1.46,2.14-1.51,3.69l-.4,11.97c-.05,1.58.37,2.86,1.26,3.83.89.98,2.1,1.49,3.61,1.54Z"/>
    <path class="cls-1" d="M204.37,23.39c.21.03.33-.05.36-.26l1.52-9.64c.01-.08.06-.12.14-.11l6.1.96c.08.01.11.06.1.14l-1.52,9.64c-.03.21.05.32.26.36l1.02.16c.21.03.32-.05.36-.26l3.31-20.94c.03-.21-.05-.32-.26-.36l-1.02-.16c-.21-.03-.32.05-.36.26l-1.52,9.61c-.01.08-.06.12-.15.1l-6.09-.96c-.09-.01-.12-.06-.11-.14l1.52-9.61c.03-.21-.06-.32-.26-.35l-1.01-.16c-.21-.03-.33.05-.36.26l-3.3,20.94c-.04.21.05.32.26.36l1.01.16Z"/>
    <path class="cls-1" d="M232.04,4.48c.14.04.28,0,.42-.11l2.06-1.88s.07-.04.11-.03.06.04.08.09l.76,2.68c.06.17.16.27.3.32l.93.26c.16.04.26,0,.29-.11.01-.04,0-.1,0-.2l-1.14-3.63c-.06-.17-.16-.27-.3-.31l-1.26-.36c-.14-.04-.28,0-.42.11l-2.82,2.5c-.09.08-.13.17-.12.24,0,.08.08.14.19.17l.93.26Z"/>
    <path class="cls-1" d="M223.04,27.04l8.52,2.42c.2.06.33-.01.38-.21l.23-.81c.05-.2-.02-.33-.22-.38l-7.11-2.02c-.08-.02-.11-.07-.09-.15l2.32-8.16c.02-.08.08-.11.15-.08l4.56,1.29c.2.06.33-.01.39-.21l.23-.81c.06-.2-.01-.33-.21-.39l-4.56-1.29c-.08-.02-.11-.07-.08-.15l2.31-8.13c.02-.08.07-.11.15-.08l7.11,2.02c.2.06.33-.01.39-.21l.23-.81c.05-.2-.02-.33-.22-.38l-8.52-2.42c-.2-.05-.33.02-.38.22l-5.79,20.39c-.05.2.02.33.22.38Z"/>
    <path class="cls-1" d="M260.84,42.07l.89.52c.18.1.32.06.43-.11l4.9-8.37c.04-.07.1-.08.17-.04l2.99,1.74c1.24.72,2.51.85,3.8.39,1.3-.47,2.39-1.47,3.28-2.99.89-1.53,1.23-2.98,1.01-4.38-.22-1.39-.96-2.46-2.21-3.19l-4.2-2.46c-.18-.1-.32-.07-.43.11l-10.74,18.35c-.1.18-.07.32.11.42ZM267.87,32.71l4.36-7.45c.04-.07.1-.09.17-.04l2.77,1.62c.88.51,1.38,1.28,1.51,2.29s-.15,2.1-.83,3.27c-.67,1.15-1.48,1.92-2.43,2.3-.95.38-1.86.32-2.74-.2l-2.77-1.62c-.07-.04-.09-.1-.05-.17Z"/>
    <path class="cls-1" d="M277.05,52.32l.82.62c.16.13.31.11.44-.06l5.91-7.8c.05-.07.11-.08.17-.02l2.46,1.86s.06.09.04.15l-3.23,9.95c-.05.17,0,.31.15.42l.82.62c.15.11.27.11.36,0l.05-.12,3.18-10.03c.04-.08.09-.1.17-.07,1.04.35,2.1.31,3.17-.1,1.07-.41,2.03-1.18,2.87-2.29,1.05-1.39,1.55-2.79,1.49-4.19-.06-1.4-.67-2.54-1.83-3.42l-3.85-2.92c-.17-.12-.31-.1-.44.06l-12.8,16.9c-.13.16-.11.31.06.44ZM285.19,43.79l5.14-6.78c.05-.07.11-.08.17-.02l2.54,1.92c.81.61,1.23,1.43,1.24,2.45.01,1.01-.38,2.05-1.19,3.11-.79,1.04-1.67,1.7-2.66,1.96-.98.26-1.87.09-2.69-.53l-2.54-1.92c-.06-.05-.07-.11-.02-.17Z"/>
    <path class="cls-1" d="M292.01,64.56l.75.7c.15.14.3.14.44-.02l14.4-15.56c.14-.15.13-.3-.02-.44l-.76-.7c-.15-.14-.3-.13-.44.02l-14.41,15.56c-.14.15-.13.3.02.44Z"/>
    <path class="cls-1" d="M309.92,82.04c-.2,1.31.17,2.57,1.08,3.78.93,1.22,2.05,1.92,3.36,2.09,1.31.16,2.6-.23,3.86-1.19l.42-.32c.17-.12.19-.27.06-.44l-.57-.86c-.12-.17-.27-.19-.44-.06l-.57.43c-.86.66-1.75.93-2.66.83-.91-.1-1.68-.56-2.29-1.37-.61-.81-.85-1.67-.69-2.57.15-.9.66-1.67,1.52-2.33l9.71-7.37c.86-.65,1.74-.93,2.64-.83.9.1,1.66.56,2.27,1.37.63.83.87,1.69.73,2.58-.15.89-.65,1.67-1.51,2.32l-.62.47c-.16.13-.19.27-.06.44l.67.78c.05.07.12.1.2.12.09.01.17-.01.25-.08l.47-.36c1.24-.94,1.96-2.06,2.14-3.37.18-1.3-.19-2.56-1.12-3.79-.92-1.21-2.03-1.9-3.33-2.07s-2.58.21-3.82,1.16l-9.54,7.23c-1.26.96-1.99,2.09-2.18,3.39Z"/>
    <path class="cls-1" d="M318.62,95.98c-.03.07-.02.16.04.25l.53.89c.11.18.25.23.42.15l3.95-1.35s.07-.02.1,0c.03.01.06.04.08.08l3.11,5.26s.03.08.03.11c0,.04-.02.07-.06.09l-3.09,2.8c-.14.13-.16.28-.07.44l.54.91c.1.16.23.2.39.1l.06-.03,15.82-14.9c.15-.11.17-.26.07-.44l-.63-1.07c-.09-.16-.24-.21-.42-.15l-20.66,6.71c-.1.04-.16.09-.19.17ZM325.11,95.38l12.78-4.3c.06-.01.1-.01.11,0,.01.02,0,.05-.05.1l-9.94,9.1c-.07.04-.12.04-.16-.02l-2.81-4.75c-.03-.05,0-.1.06-.14Z"/>
    <path class="cls-1" d="M352.08,113.55c-.07-.15-.18-.23-.34-.23l-8.99-.15s-.08-.02-.09-.06-.01-.08.02-.11l5.96-6.76c.11-.12.13-.25.06-.4l-.43-.97c-.08-.19-.22-.25-.41-.16l-19.42,8.5c-.19.08-.24.22-.16.41l.41.94c.09.19.22.24.41.16l16.14-7.06c.06-.03.09-.02.11,0,.01.03,0,.07-.02.13l-5.55,6.2c-.11.12-.13.25-.06.4.06.13.18.2.35.18l8.35.09s.08.02.09.06c.02.04,0,.07-.06.09l-16.2,7.08c-.19.08-.25.22-.16.41l.41.94c.08.19.22.24.41.16l19.42-8.5c.19-.08.25-.22.16-.41l-.42-.97Z"/>
    <path class="cls-1" d="M336.45,133.3c-.2.06-.27.19-.21.39l.29.99c.06.2.19.27.39.21l9.3-2.75c.08-.03.13,0,.16.08l.98,3.32c.41,1.37,1.24,2.34,2.51,2.88,1.27.54,2.75.57,4.44.07,1.69-.5,2.94-1.33,3.73-2.5.79-1.16.98-2.45.57-3.84l-1.38-4.66c-.06-.2-.19-.27-.39-.21l-20.39,6.03ZM357.12,132.4c.29.98.13,1.88-.47,2.71-.6.83-1.55,1.43-2.84,1.81-1.28.38-2.39.38-3.34.02-.95-.37-1.58-1.04-1.86-2.02l-.91-3.08c-.02-.08,0-.13.08-.16l8.28-2.45c.08-.02.13,0,.16.08l.91,3.08Z"/>
    <path class="cls-1" d="M357.48,148.66l-11.65,1.96c-1.54.26-2.7.93-3.5,2.03-.8,1.09-1.07,2.39-.82,3.88.25,1.52.94,2.67,2.05,3.45,1.11.78,2.44,1.04,3.97.79l11.65-1.96c1.56-.26,2.73-.95,3.53-2.05.8-1.1,1.07-2.41.81-3.93-.25-1.52-.94-2.66-2.05-3.42s-2.44-1.01-4-.75ZM362.07,153.07c.17,1.03-.03,1.92-.61,2.68-.58.76-1.41,1.23-2.5,1.41l-11.78,1.98c-1.08.18-2.02,0-2.8-.52-.79-.53-1.26-1.31-1.44-2.34-.17-1.01.03-1.88.6-2.63.57-.75,1.4-1.22,2.48-1.4l11.78-1.98c1.09-.18,2.03-.01,2.82.51.8.52,1.28,1.28,1.44,2.29Z"/>
    <path class="cls-1" d="M360.46,169.56c-1.02.05-1.89.28-2.6.69-.72.41-1.33.91-1.83,1.51-.5.6-1.13,1.45-1.89,2.57-.76,1.1-1.33,1.89-1.71,2.38-.38.49-.85.89-1.39,1.22-.55.33-1.2.51-1.97.55-1.16.06-2.13-.22-2.88-.83-.76-.61-1.16-1.4-1.21-2.37-.04-.98.29-1.79,1.01-2.44.72-.65,1.69-1,2.92-1.06l.59-.03c.21,0,.31-.12.3-.33l-.05-1c-.01-.21-.12-.3-.33-.3l-.65.03c-1.62.08-2.91.6-3.88,1.56-.96.96-1.41,2.18-1.34,3.65.07,1.48.63,2.65,1.68,3.53,1.05.87,2.43,1.27,4.13,1.19.93-.05,1.72-.24,2.37-.6s1.24-.85,1.77-1.47c.53-.63,1.23-1.58,2.08-2.85.7-1.03,1.27-1.8,1.7-2.31.43-.51.9-.91,1.41-1.19s1.11-.44,1.82-.47c1.18-.06,2.12.2,2.8.77.68.57,1.05,1.31,1.09,2.23.05,1.02-.29,1.85-1.02,2.5-.73.65-1.7,1-2.93,1.06l-.78.04c-.21,0-.31.12-.3.33l.05,1.03c0,.21.12.31.33.3l.78-.04c1.66-.08,2.98-.6,3.95-1.56.97-.96,1.43-2.2,1.35-3.71-.07-1.41-.58-2.54-1.54-3.39-.96-.85-2.23-1.24-3.83-1.16Z"/>
    <path class="cls-1" d="M359.74,203.74l-11.84-1.73c-1.56-.23-2.88.05-3.95.83-1.07.78-1.72,1.92-1.94,3.42-.22,1.52.07,2.81.87,3.86.8,1.05,1.98,1.69,3.55,1.92l.53.08c.2.03.32-.06.35-.27l.21-1.01c.03-.21-.06-.32-.27-.36l-.71-.1c-1.07-.16-1.89-.6-2.45-1.32s-.78-1.59-.63-2.6c.14-1.01.59-1.77,1.34-2.29.75-.52,1.66-.7,2.73-.54l12.06,1.76c1.07.16,1.88.59,2.44,1.3.56.71.76,1.57.62,2.58-.15,1.03-.6,1.81-1.33,2.33-.74.52-1.65.7-2.71.55l-.77-.11c-.21-.03-.32.06-.35.26l-.08,1.03c-.01.09,0,.16.06.23.05.07.13.11.23.13l.59.08c1.54.23,2.84-.05,3.9-.83,1.06-.78,1.7-1.93,1.92-3.45.22-1.5-.06-2.78-.86-3.83-.79-1.05-1.96-1.69-3.5-1.91Z"/>
    <path class="cls-1" d="M339.8,220.96c-.2-.06-.33.02-.38.22l-.27.99c-.05.2.02.33.22.38l9.45,2.56c.08.02.11.07.09.15l-.81,2.98c-.02.06-.06.09-.12.09l-10.44.73c-.17.02-.29.11-.34.29l-.27.99c-.05.18,0,.29.14.32h.13s10.49-.8,10.49-.8c.08,0,.13.04.13.13.07,1.1.5,2.06,1.28,2.9.78.83,1.85,1.44,3.19,1.8,1.69.46,3.17.39,4.44-.19,1.28-.58,2.11-1.57,2.49-2.98l1.26-4.66c.05-.2-.02-.33-.22-.38l-20.46-5.54ZM357.85,230.99c-.27.98-.87,1.67-1.81,2.07-.93.39-2.05.41-3.33.07-1.26-.34-2.2-.92-2.81-1.73-.61-.81-.78-1.71-.52-2.69l.83-3.07c.02-.08.07-.11.15-.09l8.21,2.22c.08.02.11.07.09.15l-.83,3.07Z"/>
    <path class="cls-1" d="M338.7,240.61c-1.44-.59-2.79-.62-4.04-.11-1.25.51-2.16,1.48-2.73,2.88-.58,1.43-.6,2.76-.06,4.01.54,1.25,1.53,2.17,2.97,2.75l10.95,4.44c1.47.59,2.83.63,4.08.1,1.25-.53,2.17-1.5,2.75-2.93.58-1.42.59-2.75.05-3.98-.54-1.23-1.55-2.14-3.01-2.73l-10.95-4.43ZM351.26,251.21c-.39.96-1.03,1.62-1.92,1.96-.89.35-1.85.31-2.87-.1l-11.07-4.48c-1.02-.42-1.72-1.05-2.12-1.92-.39-.86-.39-1.78,0-2.74.38-.94,1.01-1.59,1.89-1.93.88-.34,1.83-.3,2.85.11l11.07,4.48c1.02.42,1.73,1.05,2.14,1.91.4.86.41,1.76.03,2.7Z"/>
    <path class="cls-1" d="M330.53,259.07c-1.38-.77-2.71-.97-3.99-.62-1.27.35-2.28,1.19-3.01,2.52-.74,1.35-.93,2.65-.55,3.92.38,1.27,1.26,2.28,2.64,3.05l.47.26c.18.1.32.06.42-.13l.55-.87c.1-.18.06-.32-.12-.42l-.63-.35c-.95-.52-1.55-1.22-1.83-2.1-.28-.88-.17-1.76.33-2.65.49-.89,1.18-1.45,2.06-1.67.88-.23,1.8-.08,2.74.45l10.67,5.9c.95.52,1.55,1.22,1.83,2.08.27.86.16,1.74-.33,2.63-.51.91-1.19,1.48-2.07,1.71-.87.23-1.79.08-2.73-.44l-.68-.38c-.18-.1-.32-.06-.42.12l-.44.93c-.04.07-.05.15-.02.23.02.09.08.15.17.2l.52.29c1.36.75,2.68.95,3.94.59,1.27-.36,2.27-1.21,3.02-2.55.73-1.33.91-2.62.55-3.88-.37-1.26-1.24-2.27-2.61-3.02l-10.48-5.79Z"/>
    <path class="cls-1" d="M316.25,274.02c-.17-.12-.31-.1-.44.07l-.6.83c-.12.17-.1.31.07.43l7.9,5.73c.07.05.08.11.03.17l-3.63,5c-.05.07-.11.08-.18.03l-7.9-5.73c-.17-.12-.31-.1-.44.07l-.6.83c-.12.17-.1.31.07.43l17.16,12.46c.17.12.31.1.43-.07l.6-.83c.12-.17.1-.31-.07-.43l-7.87-5.72c-.07-.05-.08-.11-.03-.17l3.63-5c.05-.07.11-.08.18-.03l7.87,5.71c.17.12.31.1.43-.07l.6-.83c.12-.17.1-.31-.07-.44l-17.16-12.45Z"/>
    <path class="cls-1" d="M320.26,307.33l-.66.71c-.1.11-.13.25-.09.42l.74,2.69s0,.08-.02.11c-.03.03-.06.04-.11.03l-2.73-.54c-.18-.02-.32.02-.41.13l-.66.71c-.11.12-.12.23-.03.31.03.03.09.06.18.08l3.75.63c.18.02.31-.02.41-.13l.89-.96c.1-.1.13-.25.1-.42l-.96-3.65c-.03-.11-.09-.19-.16-.21s-.15,0-.24.1Z"/>
    <path class="cls-1" d="M303.58,289.79l-6.02,6.49c-.14.15-.13.3.02.44l.62.57c.15.14.3.13.44-.02l5.02-5.42c.06-.06.11-.06.17,0l6.22,5.77c.06.05.06.11,0,.17l-3.22,3.48c-.14.15-.14.3.02.44l.62.57c.15.14.3.13.44-.02l3.22-3.47c.05-.06.11-.06.17,0l6.2,5.74c.06.06.06.11,0,.18l-5.02,5.42c-.14.15-.14.3.02.44l.62.57c.15.14.3.13.44-.02l6.02-6.49c.14-.15.14-.3-.02-.44l-15.55-14.41c-.15-.14-.3-.14-.44.02Z"/>
    <path class="cls-1" d="M262.96,322.84l-.9.49c-.18.1-.23.24-.13.42l4.6,8.54c.04.07.02.13-.05.17l-3.05,1.64c-1.26.68-2.03,1.7-2.31,3.05-.28,1.35,0,2.8.84,4.36.84,1.55,1.91,2.6,3.21,3.14s2.59.46,3.88-.23l4.28-2.31c.19-.1.22-.24.13-.42l-10.08-18.72c-.1-.19-.24-.23-.42-.13ZM271.34,341.49l-2.83,1.52c-.89.48-1.81.51-2.75.1-.93-.42-1.72-1.22-2.36-2.41-.63-1.17-.86-2.26-.7-3.27.17-1.01.7-1.75,1.59-2.24l2.83-1.52c.07-.04.13-.03.17.05l4.09,7.6c.04.07.02.13-.05.17Z"/>
    <path class="cls-1" d="M244.83,331.73c-.19.08-.25.21-.18.41l3.57,9.11c.03.08,0,.13-.07.16l-2.88,1.13c-.05.02-.11,0-.15-.04l-6.8-7.95c-.12-.13-.26-.16-.44-.1l-.96.37c-.17.07-.23.17-.18.31l.07.11,6.9,7.95c.05.07.04.13-.03.18-.84.71-1.36,1.63-1.57,2.76-.21,1.13-.05,2.34.45,3.64.64,1.63,1.57,2.78,2.79,3.46,1.23.68,2.52.75,3.87.22l4.5-1.76c.19-.08.25-.21.18-.41l-7.73-19.74c-.08-.19-.21-.25-.4-.18l-.96.37ZM251.91,350.69c.03.08,0,.13-.07.16l-2.96,1.16c-.95.37-1.86.3-2.73-.22-.87-.52-1.55-1.4-2.04-2.64-.48-1.22-.57-2.31-.28-3.29.29-.97.91-1.64,1.85-2.01l2.96-1.16c.08-.03.13,0,.16.07l3.1,7.93Z"/>
    <path class="cls-1" d="M226.58,338.06c-.2.06-.27.19-.22.39l5.84,20.38c.05.2.18.27.38.21l.99-.28c.2-.06.27-.19.22-.39l-5.84-20.38c-.05-.2-.18-.27-.38-.21l-.99.28Z"/>
    <path class="cls-1" d="M199.59,343c-1.53.16-2.71.76-3.53,1.8-.82,1.04-1.15,2.34-.98,3.91l.06.53c.02.2.14.3.34.28l1.03-.05c.2-.02.3-.14.28-.34l-.08-.72c-.11-1.07.11-1.98.67-2.7s1.35-1.14,2.36-1.25,1.86.14,2.55.73,1.09,1.43,1.21,2.51l1.28,12.12c.11,1.07-.11,1.97-.66,2.69-.55.72-1.33,1.13-2.35,1.24-1.04.11-1.9-.13-2.58-.72-.69-.58-1.09-1.41-1.2-2.49l-.09-.78c-.02-.21-.13-.3-.34-.28l-1.01.17c-.08.01-.15.05-.21.12s-.08.15-.07.26l.06.59c.17,1.55.76,2.74,1.77,3.58,1.02.83,2.29,1.17,3.82,1.01,1.51-.16,2.68-.75,3.5-1.78.82-1.03,1.15-2.32.99-3.87l-1.25-11.9c-.17-1.57-.76-2.78-1.78-3.62-1.02-.85-2.28-1.19-3.79-1.03Z"/>
    <path class="cls-1" d="M185.65,344.16c-.2,0-.32.09-.34.28l-.88,4.08s-.02.07-.05.09-.07.03-.11.03l-6.11-.06s-.08-.01-.11-.03c-.03-.02-.05-.05-.05-.09l-.8-4.1c-.04-.19-.15-.28-.34-.28h-1.06c-.19-.01-.28.08-.28.27v.06s4.54,21.25,4.54,21.25c.02.19.13.28.34.29h1.25c.19.02.3-.08.34-.26l4.97-21.15c.02-.1,0-.19-.04-.25s-.13-.09-.23-.1h-1.03ZM181.11,363.29c-.02.06-.04.09-.07.09-.02,0-.04-.03-.06-.09l-2.64-13.22c0-.08.03-.12.09-.12l5.52.06c.06,0,.09.04.09.13l-2.94,13.16Z"/>
    <path class="cls-1" d="M165.74,343.25c-.2-.03-.32.06-.35.27l-2.35,17.46c0,.06-.03.09-.06.09-.03,0-.06-.03-.1-.08l-2.42-7.97c-.04-.15-.15-.24-.31-.26-.14-.02-.26.05-.34.2l-4.41,7.08s-.06.06-.1.05c-.04,0-.06-.04-.05-.1l2.36-17.52c.03-.2-.06-.32-.27-.35l-1.02-.14c-.21-.03-.32.06-.35.27l-2.83,21.01c-.03.21.06.32.27.35l1.05.14c.16.02.29-.04.37-.17l4.8-7.6s.06-.05.1-.05c.04,0,.07.03.09.07l2.68,8.61c.04.15.15.24.31.26l1.05.14c.21.03.32-.06.35-.27l2.83-21.01c.03-.2-.06-.32-.27-.35l-1.02-.14Z"/>
    <path class="cls-1" d="M145.5,339.74l-1-.27c-.2-.05-.33.02-.38.22l-2.49,9.37c-.02.08-.07.11-.15.09l-3.34-.89c-1.39-.37-2.64-.16-3.77.64-1.13.8-1.92,2.05-2.37,3.76-.46,1.71-.39,3.2.19,4.49.58,1.28,1.58,2.11,2.98,2.49l4.7,1.25c.2.05.33-.02.38-.22l5.47-20.55c.05-.2-.02-.33-.22-.38ZM138.99,358.98c-.02.08-.07.11-.15.09l-3.1-.83c-.98-.26-1.67-.86-2.07-1.81-.39-.94-.42-2.07-.07-3.37.34-1.28.92-2.24,1.73-2.86.81-.62,1.71-.8,2.69-.54l3.1.83c.08.02.11.07.09.15l-2.22,8.35Z"/>
    <path class="cls-1" d="M126.24,335.11c-.52-1.25-1.48-2.15-2.89-2.71-1.43-.57-2.77-.58-4.01-.04s-2.16,1.54-2.74,2.99l-4.38,10.98c-.59,1.47-.61,2.83-.08,4.08.53,1.25,1.51,2.16,2.94,2.73,1.43.57,2.76.58,3.98.03,1.23-.55,2.13-1.56,2.72-3.03l4.38-10.98c.58-1.45.61-2.79.09-4.04ZM120.22,349.58c-.41,1.02-1.04,1.74-1.9,2.15-.86.41-1.76.42-2.7.05-.97-.39-1.62-1.02-1.97-1.92-.35-.89-.32-1.84.09-2.87l4.42-11.09c.41-1.03,1.04-1.73,1.9-2.13.86-.39,1.78-.4,2.74-.02.95.38,1.59,1,1.94,1.88.34.87.31,1.82-.1,2.85l-4.42,11.09Z"/>
    <path class="cls-1" d="M105.45,325.59c.86.46,1.38,1.17,1.56,2.12.18.95-.02,1.97-.6,3.04l-.28.52c-.1.18-.06.32.13.42l.88.48c.18.1.32.06.42-.13l.31-.58c.77-1.43,1-2.8.68-4.12-.32-1.32-1.13-2.34-2.43-3.04-1.3-.7-2.59-.83-3.89-.39-1.29.44-2.35,1.41-3.16,2.91-.45.83-.69,1.6-.72,2.34-.03.74.08,1.5.34,2.28.26.78.71,1.87,1.36,3.26.52,1.14.88,2.02,1.1,2.65.21.64.31,1.24.29,1.82-.02.58-.2,1.18-.54,1.8-.57,1.04-1.27,1.7-2.11,1.99-.84.29-1.66.21-2.47-.22-.89-.49-1.43-1.21-1.61-2.17-.18-.96.03-1.98.61-3.05l.37-.69c.1-.18.06-.32-.13-.42l-.9-.49c-.18-.1-.32-.06-.42.13l-.37.69c-.79,1.46-1.03,2.86-.71,4.19.32,1.33,1.14,2.36,2.48,3.08,1.24.67,2.47.82,3.7.45s2.21-1.27,2.98-2.68c.49-.9.74-1.76.76-2.58.02-.82-.09-1.61-.34-2.35-.25-.74-.65-1.72-1.22-2.95-.54-1.22-.92-2.12-1.14-2.7-.22-.58-.32-1.19-.32-1.82,0-.64.19-1.29.56-1.97.56-1.02,1.29-1.7,2.2-2.03.91-.33,1.8-.26,2.66.2Z"/>
    <path class="cls-1" d="M82.41,310.46c-.11-1.32-.75-2.46-1.93-3.42-1.19-.98-2.44-1.4-3.75-1.25-1.31.14-2.47.82-3.48,2.04l-.34.41c-.13.16-.12.31.04.44l.75.7c.16.13.31.12.44-.04l.46-.55c.69-.83,1.49-1.3,2.4-1.42.91-.11,1.76.16,2.55.81.78.65,1.21,1.43,1.27,2.33.06.91-.26,1.78-.94,2.62l-7.75,9.41c-.69.84-1.48,1.31-2.38,1.42-.9.11-1.74-.16-2.53-.81-.8-.66-1.24-1.44-1.3-2.34-.06-.9.25-1.77.93-2.6l.5-.6c.13-.16.12-.31-.04-.44l-.83-.6c-.06-.05-.14-.08-.23-.07-.09,0-.16.05-.23.13l-.38.46c-.99,1.2-1.43,2.46-1.31,3.77.12,1.31.77,2.46,1.96,3.43,1.17.96,2.41,1.38,3.72,1.25,1.31-.14,2.46-.8,3.45-2.01l7.61-9.24c1-1.22,1.45-2.49,1.34-3.81Z"/>
    <path class="cls-1" d="M69.02,297.04l-.71-.74c-.15-.15-.29-.16-.44-.01l-7.09,6.75c-.06.06-.12.05-.18,0l-2.13-2.24s-.05-.1-.02-.15l4.79-9.3c.08-.16.05-.31-.08-.44l-.71-.74c-.13-.14-.25-.16-.35-.05l-.07.11-4.75,9.39c-.05.07-.1.08-.18.04-.97-.51-2.02-.64-3.14-.4-1.12.24-2.19.83-3.2,1.79-1.26,1.2-1.98,2.51-2.14,3.9-.17,1.39.25,2.61,1.26,3.67l3.33,3.5c.14.15.29.15.44.01l15.35-14.63c.15-.14.15-.29.01-.44ZM59.61,304.15l-6.16,5.87c-.06.06-.12.06-.18,0l-2.19-2.3c-.7-.74-.98-1.61-.83-2.61.15-1,.71-1.96,1.67-2.88.95-.9,1.93-1.41,2.94-1.51,1.01-.1,1.87.22,2.57.96l2.19,2.3c.06.06.06.12,0,.17Z"/>
    <path class="cls-1" d="M52.79,286.38c1.25-.93,1.98-2.06,2.19-3.4.21-1.34-.14-2.61-1.04-3.83-.92-1.23-2.05-1.95-3.4-2.14s-2.64.18-3.9,1.11l-9.48,7.05c-1.27.94-2,2.09-2.21,3.43-.2,1.34.15,2.63,1.07,3.87s2.04,1.94,3.38,2.11c1.33.17,2.63-.21,3.9-1.15l9.48-7.06ZM39.54,292.98c-.94-.1-1.72-.56-2.33-1.38-.62-.83-.84-1.72-.68-2.66.17-.94.69-1.74,1.58-2.4l9.58-7.13c.88-.66,1.8-.93,2.74-.81.94.12,1.72.59,2.34,1.43.61.81.83,1.69.66,2.61-.17.93-.69,1.72-1.57,2.38l-9.58,7.13c-.88.66-1.8.93-2.74.83Z"/>
    <path class="cls-1" d="M41.25,269.78c1.37-.78,2.24-1.81,2.6-3.08s.17-2.57-.58-3.89c-.76-1.33-1.78-2.17-3.06-2.5-1.28-.34-2.61-.11-3.98.67l-.46.26c-.18.1-.22.24-.12.43l.46.92c.1.18.24.22.42.11l.62-.36c.94-.53,1.85-.69,2.75-.47.89.22,1.59.77,2.09,1.66.51.88.62,1.76.35,2.63-.27.87-.87,1.57-1.81,2.11l-10.59,6.04c-.94.53-1.85.69-2.73.48-.88-.22-1.57-.77-2.07-1.65-.52-.9-.64-1.79-.38-2.65.26-.87.86-1.57,1.8-2.1l.68-.39c.18-.1.22-.25.12-.43l-.57-.86c-.04-.07-.1-.12-.19-.14-.08-.02-.17,0-.26.04l-.51.29c-1.35.77-2.21,1.79-2.56,3.06-.35,1.27-.15,2.57.61,3.91.75,1.32,1.76,2.15,3.03,2.49,1.27.34,2.58.12,3.94-.65l10.4-5.93Z"/>
    <path class="cls-1" d="M36.16,249.45l-.41-.95c-.08-.19-.22-.25-.41-.16l-8.97,3.85c-.08.03-.13,0-.16-.07l-2.44-5.67c-.03-.08,0-.13.07-.16l8.97-3.85c.19-.08.24-.22.16-.41l-.41-.95c-.08-.19-.22-.24-.41-.16l-19.48,8.36c-.19.08-.24.22-.17.41l.41.95c.08.19.22.25.41.16l8.94-3.84c.08-.04.13-.01.16.07l2.44,5.67c.03.07.01.13-.07.16l-8.94,3.84c-.19.08-.25.22-.16.41l.41.95c.08.19.22.24.41.17l19.48-8.37c.19-.08.25-.22.16-.41Z"/>
    <path class="cls-1" d="M3.38,230.29l-2.48,2.88c-.11.14-.15.28-.11.42l.36,1.26c.04.14.15.24.31.3l3.61,1.07c.12.03.21.02.27-.03s.07-.14.04-.26l-.27-.93c-.04-.14-.14-.24-.31-.3l-2.68-.76s-.08-.03-.09-.07c-.01-.04,0-.08.03-.11l1.88-2.06c.11-.14.15-.28.11-.42l-.27-.93c-.04-.16-.13-.22-.25-.19-.04.01-.1.05-.16.11Z"/>
    <path class="cls-1" d="M28.82,231.16c.2-.05.27-.18.21-.38l-2.43-8.52c-.06-.2-.18-.27-.38-.21l-.81.23c-.2.06-.27.19-.21.39l2.03,7.1c.02.08,0,.13-.09.16l-8.15,2.33c-.08.02-.13,0-.15-.09l-1.3-4.56c-.06-.2-.18-.27-.39-.21l-.81.23c-.2.06-.27.19-.22.39l1.3,4.56c.02.08,0,.13-.09.15l-8.13,2.32c-.08.02-.13,0-.15-.09l-2.03-7.11c-.06-.2-.18-.27-.38-.21l-.81.23c-.2.06-.27.19-.21.39l2.43,8.51c.06.2.19.27.39.22l20.39-5.82Z"/>
  </g>
  <g>
    <path class="cls-1" d="M253.85,265.38c-7.22,2.78-14.79,4.14-22.62,4.14-9.73,0-18.21-1.9-25.4-5.74-7.22-3.8-13.19-9.01-17.95-15.63-4.79-6.58-8.36-14.14-10.72-22.66-2.36-8.52-3.54-17.45-3.54-26.77v-.42c0-6.35.53-12.51,1.63-18.48,1.37-.49,2.78-.99,4.18-1.48,1.37-.49,2.78-1.03,4.22-1.52,2.62-.95,5.32-1.94,8.1-2.93,11.22-4.18,19.96-10.38,26.27-18.67,4.79-6.54,7.38-13.16,7.79-19.85-6.2.53-11.71,2.05-16.46,4.56-.53.27-1.03.57-1.52.87-.61,5.25-2.05,10.3-4.33,15.13-3.92,8.17-9.58,13.8-17.03,16.84-.68.23-1.33.49-1.98.72-1.48.53-2.89,1.03-4.3,1.52-1.48.53-2.89,1.06-4.3,1.56.38-1.71.8-3.38,1.25-5.06,2.36-8.52,5.93-16.08,10.72-22.66,4.75-6.62,10.72-11.82,17.95-15.63.72-.38,1.48-.76,2.24-1.1,5.17-2.4,10.99-3.88,17.41-4.41,1.86-.15,3.76-.23,5.74-.23,7.98,0,15.63,1.41,22.93,4.26h.11c2.28,1.14,3.84,3.08,4.64,5.78.84,2.7,1.22,5.59,1.22,8.63s-.11,5.67-.38,7.91l-.53,3.35h1.14l6.69-18.67.99-2.93-.19-.11c-11.1-7.49-23.31-11.25-36.61-11.25-2.09,0-4.14.08-6.2.27-.27-1.29-.57-2.51-.91-3.73-.38-1.25-.8-2.51-1.33-3.69-2.28-5.7-5.89-10.65-10.84-14.83-9.13-7.15-20.27-10.76-33.38-10.76h-73.15v2.43c3.19,0,5.51.65,7.03,1.9,1.48,1.25,2.21,3,2.21,5.21v128.74c0,2.17-.72,3.88-2.21,5.17-1.52,1.29-3.84,1.9-7.03,1.9v2.43h36.04v-2.43c-3.12,0-5.44-.61-6.92-1.9-1.48-1.29-2.21-3-2.21-5.17v-35.32c4.64-1.52,9.89-3.27,15.7-5.29.11-1.06.27-2.13.46-3.19-6.12,2.13-11.52,3.92-16.16,5.44v-97.07l31.52.19c13.54,0,24.33,3.61,32.47,10.76,5.55,5.4,9.01,10.38,10.38,15.09.38,1.1.57,2.21.68,3.27,0,.19.04.34.04.49.15,1.44.27,2.74.34,3.88-1.83.61-3.61,1.25-5.4,2.02-9.24,3.92-17.57,9.54-25.02,16.92-7.07,7.07-12.59,15.13-16.46,24.11-1.71,3.99-3.08,8.02-4.03,12.01-.27,1.1-.49,2.21-.68,3.27-.76,3.92-1.14,7.83-1.14,11.71v.42c0,8.97,1.98,17.98,5.86,26.96,3.88,9.01,9.39,17.07,16.46,24.14,7.45,7.38,15.78,13,25.02,16.92,9.24,3.88,18.86,5.82,28.86,5.82,6.69,0,13.12-1.25,19.24-3.8,6.08-2.55,11.79-5.7,16.96-9.51l-.38-.99c-4.07,2.89-8.44,5.29-13.19,7.11Z"/>
    <path class="cls-1" d="M123.51,274.21c0-4.04,1.44-7.5,4.3-10.36,2.86-2.87,6.32-4.3,10.36-4.3-4.04,0-7.5-1.43-10.36-4.3-2.87-2.87-4.3-6.32-4.3-10.37,0,4.04-1.43,7.5-4.3,10.37-2.87,2.87-6.32,4.3-10.37,4.3,4.04,0,7.5,1.44,10.37,4.3,2.87,2.87,4.3,6.32,4.3,10.36Z"/>
  </g>
</svg>