<?xml version="1.0" encoding="UTF-8"?>
<svg id="Camada_1" xmlns="http://www.w3.org/2000/svg" version="1.1" viewBox="0 0 800 800">
  <!-- Generator: Adobe Illustrator 29.5.1, SVG Export Plug-In . SVG Version: 2.1.0 Build 141)  -->
  <defs>
    <style>
      .st0 {
        fill: #eadfd5;
      }
    </style>
  </defs>
  <path class="st0" d="M323.3,511.47v-222.92l195.97,111.47-195.97,111.45ZM759.2,218.37c-8.85-32.53-33.85-57.68-65.62-66.58l-.68-.15c-79.83-10.15-172.15-15.95-265.85-15.95-9.53,0-19.02.05-28.5.17l1.45-.02c-8.05-.1-17.53-.17-27.05-.17-93.7,0-186.07,5.8-276.75,17.03l10.85-1.1c-32.42,9.07-57.42,34.2-66.1,66.08l-.15.65c-10,52.73-15.7,113.4-15.7,175.4,0,2.2,0,4.4.03,6.57v-.35c0,1.85-.03,4.05-.03,6.25,0,62,5.72,122.65,16.65,181.48l-.95-6.1c8.85,32.53,33.85,57.67,65.62,66.58l.67.15c79.82,10.15,172.15,15.95,265.85,15.95,9.5,0,19-.05,28.5-.17l-1.45.02c8.05.1,17.55.17,27.05.17,93.73,0,186.08-5.8,276.75-17.02l-10.85,1.1c32.45-9.05,57.45-34.2,66.15-66.07l.15-.65c9.98-52.72,15.68-113.4,15.68-175.37,0-2.2,0-4.4-.02-6.58v.33c0-1.85.02-4.05.02-6.25,0-62-5.73-122.65-16.65-181.47l.95,6.1h-.03Z"/>
</svg>